<svg width="25" height="25" viewBox="0 0 41 41" fill="none" xmlns="http://www.w3.org/2000/svg"><g clip-path="url(#clip0_2_52)"><path d="M4.8102 0.438965C2.02328 0.438965 0 2.36144 0 5.0083C0 7.65427 1.98314 9.57496 4.71385 9.57496C6.13051 9.57496 7.3509 9.11553 8.24389 8.24662C9.10031 7.41251 9.57223 6.26259 9.57134 4.98778C9.50889 2.3097 7.55073 0.438965 4.8102 0.438965ZM7.0003 6.96824C6.4472 7.50618 5.65591 7.79076 4.71385 7.79076C2.98943 7.79076 1.7842 6.64709 1.7842 5.0083C1.7842 3.34275 3.00013 2.22316 4.8102 2.22316C6.57923 2.22316 7.74788 3.32491 7.78803 5.00919C7.78714 5.77818 7.50791 6.47313 7.0003 6.96824Z" fill="white"></path><path d="M0.855522 40.5611H8.87371V11.0817H0.855522V40.5611ZM2.63972 12.8659H7.08951V38.776H2.63972V12.8659Z" fill="white"></path><path d="M30.0174 11.0817C26.2991 11.0817 24.0225 12.3654 22.7039 13.5724L22.4533 11.0817H13.3815V40.5602H22.2659V25.0671C22.2659 24.3998 22.5362 23.0144 22.7057 22.6486C23.7789 20.3372 25.2268 20.3372 27.4196 20.3372C29.9451 20.3372 32.079 22.7057 32.079 25.5087V40.562H41V23.9065C41 15.0943 35.3066 11.0817 30.0174 11.0817ZM39.2158 38.7769H33.8632V25.5078C33.8632 21.7369 30.9121 18.5521 27.4196 18.5521C25.1786 18.5521 22.6397 18.5521 21.0866 21.8975C20.7663 22.5889 20.4808 24.2455 20.4808 25.0671V38.7769H15.1657V12.8659H20.8394L21.2034 16.4735H22.6656L22.927 16.0516C23.522 15.0934 25.4034 12.865 30.0174 12.865C34.4475 12.865 39.2158 16.3192 39.2158 23.9038V38.7769Z" fill="white"></path></g><defs><clipPath id="clip0_2_52"><rect width="41" height="41" fill="white"></rect></clipPath></defs></svg>