       <svg width="102" height="115" viewBox="0 0 102 115" fill="none" xmlns="http://www.w3.org/2000/svg"> <path d="M51.1111 114.722C49.5556 114.722 48 114.278 46.6667 113.611L32.6667 105.389C30.6667 104.278 31.5556 103.833 32.2222 103.611C35.1111 102.722 35.5555 102.5 38.6667 100.722C38.8889 100.5 39.3333 100.722 39.7778 100.722L50.6666 107.167C51.1111 107.389 51.5555 107.389 52 107.167L94 82.9445C94.4444 82.7222 94.6667 82.2778 94.6667 81.8334V33.1667C94.6667 32.7222 94.4444 32.2778 94 32.0556L52 7.83333C51.5555 7.61111 51.1111 7.61111 50.6666 7.83333L8.44445 31.8333C8.00001 32.0556 7.77778 32.5 7.77778 32.9444V81.3889C7.77778 81.8334 8.00001 82.2778 8.44445 82.5L20 89.1667C26.2222 92.2778 30 88.7222 30 84.9445V37.1667C30 36.5 30.4445 36.0556 31.3334 36.0556H36.6667C37.3333 36.0556 37.7778 36.5 37.7778 37.1667V85.1667C37.7778 93.6111 33.3333 98.2778 25.3333 98.2778C22.8889 98.2778 20.8889 98.2778 15.5556 95.6111L4.44445 89.1667C1.77778 87.6111 0 84.7222 0 81.3889V33.1667C0 30.0556 1.77778 27.1667 4.44445 25.3889L46.6667 1.16667C49.3333 -0.388889 52.8889 -0.388889 55.5556 1.16667L97.5556 25.3889C100.222 26.9444 102 29.8333 102 33.1667V81.6111C102 84.7222 100.222 87.6111 97.5556 89.3889L55.5556 113.611C54 114.278 52.6667 114.722 51.1111 114.722Z" fill="#00AD6F"></path> <path d="M64 81.3888C45.5555 81.3888 41.7778 72.9443 41.7778 65.8332C41.7778 65.1666 42.2222 64.7221 42.8889 64.7221H48.2223C48.8889 64.7221 49.3334 65.1666 49.3334 65.8332C50.2223 71.3888 52.6667 74.0555 63.7778 74.0555C72.6667 74.0555 76.4445 72.0555 76.4445 67.3888C76.4445 64.7221 75.3334 62.7221 61.5556 61.3888C50 60.2777 42.8889 57.611 42.8889 48.4999C42.8889 40.0554 50 34.9443 62 34.9443C75.5556 34.9443 82.2222 39.611 82.8889 49.611C82.8889 50.0554 82.8889 50.2777 82.6667 50.4999C82.4445 50.7221 82.2222 50.9443 81.7778 50.9443H76.2222C75.5556 50.9443 75.1111 50.4999 75.1111 50.0554C73.7778 44.2777 70.6667 42.2777 62 42.2777C52.2222 42.2777 51.1111 45.611 51.1111 48.2777C51.1111 51.3888 52.4445 52.2777 65.5556 54.0554C78.4445 55.8332 84.6667 58.2777 84.6667 67.1666C84.8889 76.0555 77.3333 81.3888 64 81.3888Z" fill="#00AD6F"></path> </svg>